<?xml version="1.0" encoding="UTF-8"?>
<svg xmlns="http://www.w3.org/2000/svg" width="1560" height="980" viewBox="0 0 1560 980">
  <title>Doubow high-level architecture</title>
  <desc>Static architecture diagram matching docs/architecture/doubow-high-level-flow.md exactly.</desc>

  <defs>
    <marker id="arrow" viewBox="0 0 10 10" refX="8" refY="5" markerWidth="7" markerHeight="7" orient="auto-start-reverse">
      <path d="M2 1L8 5L2 9" fill="none" stroke="context-stroke" stroke-width="1.6" stroke-linecap="round" stroke-linejoin="round"/>
    </marker>
    <style>
      text { font-family: Arial, sans-serif; fill: #1A1A1A; }
      .title { font-size: 13px; font-weight: 700; }
      .sub { font-size: 11px; fill: #555; }
      .edge { stroke: #666; stroke-width: 1.5; fill: none; marker-end: url(#arrow); }
      .edge-label { font-size: 10px; fill: #666; }
    </style>
  </defs>

  <rect width="1560" height="980" fill="#FFF"/>

  <!-- Nodes (matching Mermaid names 1:1) -->
  <rect x="60" y="80" width="180" height="60" rx="10" fill="#F4F4F4" stroke="#999"/>
  <text class="title" x="150" y="108" text-anchor="middle">User Web App</text>
  <text class="sub" x="150" y="126" text-anchor="middle">U</text>

  <rect x="300" y="80" width="210" height="72" rx="10" fill="#EAF4FF" stroke="#3A79C9"/>
  <text class="title" x="405" y="108" text-anchor="middle">Frontend</text>
  <text class="sub" x="405" y="126" text-anchor="middle">Next.js App Router</text>
  <text class="sub" x="405" y="142" text-anchor="middle">FE</text>

  <rect x="300" y="210" width="210" height="72" rx="10" fill="#F5ECFF" stroke="#7D4AB8"/>
  <text class="title" x="405" y="238" text-anchor="middle">Clerk</text>
  <text class="sub" x="405" y="256" text-anchor="middle">Auth + Session</text>
  <text class="sub" x="405" y="272" text-anchor="middle">CL</text>

  <rect x="610" y="80" width="220" height="84" rx="10" fill="#E6FAF2" stroke="#1D8F65"/>
  <text class="title" x="720" y="108" text-anchor="middle">API Gateway</text>
  <text class="sub" x="720" y="126" text-anchor="middle">FastAPI</text>
  <text class="sub" x="720" y="144" text-anchor="middle">API</text>

  <rect x="900" y="70" width="260" height="94" rx="10" fill="#F0EDFF" stroke="#5D47B0"/>
  <text class="title" x="1030" y="98" text-anchor="middle">Domain/Agent Services</text>
  <text class="sub" x="1030" y="116" text-anchor="middle">Discover - Scoring - Writing</text>
  <text class="sub" x="1030" y="132" text-anchor="middle">Apply - Prep - Monitor</text>
  <text class="sub" x="1030" y="148" text-anchor="middle">AG</text>

  <rect x="900" y="230" width="220" height="72" rx="10" fill="#FFF4E8" stroke="#C7852E"/>
  <text class="title" x="1010" y="258" text-anchor="middle">Autopilot Runs</text>
  <text class="sub" x="1010" y="276" text-anchor="middle">Idempotency - Run History</text>
  <text class="sub" x="1010" y="292" text-anchor="middle">Resume API (AUTO)</text>

  <rect x="1180" y="230" width="220" height="72" rx="10" fill="#EFEAFF" stroke="#6F55C6"/>
  <text class="title" x="1290" y="258" text-anchor="middle">LangGraph Autopilot</text>
  <text class="sub" x="1290" y="276" text-anchor="middle">Parity Graph (Optional)</text>
  <text class="sub" x="1290" y="292" text-anchor="middle">LG</text>

  <rect x="900" y="340" width="230" height="72" rx="10" fill="#FFF0F6" stroke="#C04C86"/>
  <text class="title" x="1015" y="368" text-anchor="middle">Channel Integrations</text>
  <text class="sub" x="1015" y="386" text-anchor="middle">Google OAuth - LinkedIn OAuth</text>
  <text class="sub" x="1015" y="402" text-anchor="middle">OAUTH</text>

  <rect x="610" y="320" width="220" height="72" rx="10" fill="#EFEFEF" stroke="#777"/>
  <text class="title" x="720" y="348" text-anchor="middle">Supabase Postgres</text>
  <text class="sub" x="720" y="366" text-anchor="middle">DB</text>

  <rect x="610" y="420" width="220" height="72" rx="10" fill="#EFEFEF" stroke="#777"/>
  <text class="title" x="720" y="448" text-anchor="middle">Redis</text>
  <text class="sub" x="720" y="466" text-anchor="middle">RD</text>

  <rect x="610" y="520" width="220" height="72" rx="10" fill="#E8F9FF" stroke="#2F90B6"/>
  <text class="title" x="720" y="548" text-anchor="middle">LLM Provider</text>
  <text class="sub" x="720" y="566" text-anchor="middle">OpenRouter/Anthropic</text>
  <text class="sub" x="720" y="582" text-anchor="middle">LLM</text>

  <rect x="300" y="520" width="210" height="72" rx="10" fill="#F8F8E8" stroke="#8A8A3A"/>
  <text class="title" x="405" y="548" text-anchor="middle">PostHog</text>
  <text class="sub" x="405" y="566" text-anchor="middle">PH</text>

  <rect x="300" y="620" width="210" height="72" rx="10" fill="#FDEEEF" stroke="#C34E5C"/>
  <text class="title" x="405" y="648" text-anchor="middle">Sentry</text>
  <text class="sub" x="405" y="666" text-anchor="middle">SENTRY</text>

  <rect x="610" y="620" width="220" height="72" rx="10" fill="#EEF7FD" stroke="#4E89B8"/>
  <text class="title" x="720" y="648" text-anchor="middle">Metrics Endpoint</text>
  <text class="sub" x="720" y="666" text-anchor="middle">METRICS</text>

  <!-- Edges (matching Mermaid edges 1:1) -->
  <line class="edge" x1="240" y1="110" x2="300" y2="110"/>
  <line class="edge" x1="405" y1="152" x2="405" y2="210"/>
  <text class="edge-label" x="418" y="184">Sign-in / session</text>

  <line class="edge" x1="510" y1="110" x2="610" y2="110"/>
  <text class="edge-label" x="540" y="98">Bearer JWT</text>

  <line class="edge" x1="660" y1="164" x2="460" y2="210"/>
  <text class="edge-label" x="520" y="178">JWT verify</text>

  <line class="edge" x1="830" y1="104" x2="900" y2="104"/>
  <line class="edge" x1="830" y1="128" x2="900" y2="364"/>
  <line class="edge" x1="830" y1="144" x2="900" y2="266"/>

  <line class="edge" x1="720" y1="164" x2="720" y2="320"/>
  <line class="edge" x1="720" y1="164" x2="720" y2="420"/>
  <line class="edge" x1="720" y1="164" x2="720" y2="520"/>
  <line class="edge" x1="720" y1="164" x2="720" y2="620"/>
  <line class="edge" x1="690" y1="164" x2="460" y2="620"/>
  <line class="edge" x1="640" y1="164" x2="460" y2="520"/>

  <line class="edge" x1="1010" y1="164" x2="720" y2="320"/>
  <line class="edge" x1="1030" y1="164" x2="720" y2="420"/>
  <line class="edge" x1="1050" y1="164" x2="720" y2="520"/>

  <line class="edge" x1="1120" y1="266" x2="1180" y2="266"/>
  <line class="edge" x1="1010" y1="302" x2="720" y2="356"/>
  <line class="edge" x1="980" y1="302" x2="720" y2="456"/>
  <line class="edge" x1="1290" y1="302" x2="780" y2="356"/>

  <line class="edge" x1="510" y1="556" x2="300" y2="556"/>
  <line class="edge" x1="720" y1="164" x2="300" y2="556"/>

  <!-- Footer note -->
  <text class="sub" x="60" y="930">This static SVG intentionally mirrors docs/architecture/doubow-high-level-flow.md node names and edges 1:1.</text>
</svg>
